<?xml version="1.0" encoding="UTF-8"?>
<svg width="700pt" height="700pt" version="1.1" viewBox="0 0 700 700" xmlns="http://www.w3.org/2000/svg">
 <g>
  <path d="m308.04 170.43c-2.9844 0.16797-5.6211 2-6.8203 4.7383-1.2031 2.7383-0.76172 5.918 1.1367 8.2305 8.9258 10.793 14.246 24.113 15.211 38.086 0.96875 13.977-2.4688 27.902-9.8242 39.82-9.3789 15.188-10.156 34.172-2.0508 50.074 8.1055 15.906 23.918 26.43 41.719 27.77-4.4961 14.254-11.66 27.523-21.113 39.102-0.77344 0.93359-1.1406 2.1406-1.0234 3.3477 0.11719 1.2109 0.71094 2.3203 1.6523 3.0898 0.94141 0.76953 2.1484 1.1289 3.3555 1.0039 1.207-0.125 2.3164-0.72656 3.0781-1.6719 10.836-13.277 18.871-28.609 23.625-45.074 17.211-1.9453 32.27-12.473 40.004-27.973 7.7383-15.496 7.0977-33.859-1.6953-48.785-20.871-35.426-48.836-66.156-82.141-90.266-1.4805-1.0703-3.2891-1.5977-5.1133-1.4922zm6.0859 13.578c29.547 22.633 54.445 50.754 73.34 82.82 6.918 11.746 7.7109 26.121 2.1211 38.559s-16.867 21.387-30.25 24.008c4.832-23.402 2.9688-47.691-5.3867-70.078-0.40234-1.1523-1.2539-2.0938-2.3594-2.6094-1.1055-0.51953-2.3711-0.57031-3.5156-0.14453s-2.0703 1.2891-2.5703 2.4062c-0.5 1.1133-0.52734 2.3789-0.085937 3.5156 8.0859 21.637 9.6367 45.172 4.4609 67.684-14.984-0.49219-28.57-8.9258-35.656-22.137-7.0859-13.211-6.5977-29.195 1.2812-41.949 7.6406-12.379 11.57-26.688 11.332-41.234-0.24219-14.547-4.6445-28.719-12.688-40.84z"/>
  <path d="m244.7 142.55v274.87h210.99v-274.87zm9.0977 9.0977h192.82v256.68h-192.82z"/>
  <path d="m329.83 23.754c-36.027 1.4766-71.789 6.8789-106.65 16.109-7.0195 1.875-14.508-0.10547-19.688-5.2031-6.25-6.4297-14.84-10.051-23.809-10.027-8.9648 0.023438-17.539 3.6836-23.754 10.148-6.2188 6.4609-9.5469 15.172-9.2227 24.133 0.32422 8.9609 4.2734 17.406 10.941 23.402 5.0859 4.7734 7.3945 11.805 6.1328 18.668-21.93 118.32-21.93 239.66 0 357.98 1.2734 6.8672-1.0391 13.91-6.1328 18.691-6.582 6.0195-10.457 14.438-10.746 23.352-0.28906 8.918 3.0352 17.57 9.2188 24 6.1797 6.4297 14.699 10.09 23.617 10.152 8.918 0.058594 17.484-3.4805 23.754-9.8242 5.1797-5.1016 12.668-7.082 19.688-5.207 83.25 22.051 170.8 22.051 254.05 0 7.0156-1.8672 14.492 0.11328 19.664 5.207 8.5195 8.1953 20.762 11.227 32.117 7.9492 11.359-3.2773 20.105-12.363 22.945-23.836 2.8438-11.477-0.65625-23.594-9.1719-31.793-5.0938-4.7812-7.4023-11.824-6.1328-18.691 21.93-118.32 21.93-239.66 0-357.98-1.2617-6.8633 1.0469-13.895 6.1328-18.668 6.4844-6.0469 10.27-14.445 10.508-23.309 0.23438-8.8594-3.0938-17.449-9.2422-23.832-6.1484-6.3867-14.605-10.039-23.469-10.137-8.8672-0.09375-17.398 3.3711-23.688 9.6211-5.1719 5.0898-12.648 7.0703-19.664 5.2031-48.051-12.723-97.738-18.152-147.4-16.109zm40.395 9.0977v-0.003906c35.363 1.4531 70.461 6.7578 104.68 15.82 10.121 2.6719 20.898-0.19141 28.355-7.5352 4.5469-4.582 10.746-7.1406 17.199-7.0898 6.4531 0.046875 12.617 2.6914 17.094 7.3398 4.4766 4.6484 6.8906 10.906 6.6992 17.355-0.19531 6.4531-2.9805 12.555-7.7305 16.926-7.3359 6.9023-10.66 17.062-8.8242 26.973 21.73 117.23 21.73 237.45 0 354.68-1.8438 9.9141 1.4805 20.09 8.8242 26.996 4.5859 4.4102 7.2344 10.465 7.3555 16.824 0.12109 6.3594-2.2891 12.512-6.6992 17.094-4.4141 4.582-10.469 7.2266-16.828 7.3438-6.3594 0.12109-12.508-2.293-17.09-6.707-7.457-7.3477-18.234-10.211-28.355-7.5352-81.719 21.645-167.67 21.645-249.39 0-10.133-2.6914-20.934 0.17188-28.398 7.5352-4.5508 4.5703-10.75 7.1133-17.199 7.0586s-12.602-2.707-17.074-7.3555c-4.4688-4.6445-6.8828-10.898-6.6875-17.344 0.19531-6.4453 2.9766-12.543 7.7188-16.914 7.3555-6.9023 10.688-17.078 8.8477-26.996-21.73-117.23-21.73-237.45 0-354.68 1.832-9.9141-1.5-20.074-8.8477-26.973-4.832-4.3477-7.6953-10.473-7.9297-16.969-0.23437-6.4961 2.1797-12.809 6.6914-17.492 4.5078-4.6836 10.723-7.3359 17.223-7.3477 6.5039-0.015625 12.73 2.6094 17.258 7.2773 7.4648 7.3594 18.266 10.227 28.398 7.5352 47.172-12.492 95.953-17.824 144.71-15.82z"/>
 </g>
</svg>
