<?xml version="1.0" encoding="utf-8"?>
<!-- Generator: Adobe Illustrator 26.5.0, SVG Export Plug-In . SVG Version: 6.00 Build 0)  -->
<svg version="1.1" id="Laag_1" xmlns="http://www.w3.org/2000/svg" xmlns:xlink="http://www.w3.org/1999/xlink" x="0px" y="0px"
	 viewBox="0 0 477 241" style="enable-background:new 0 0 477 241;" xml:space="preserve">
<style type="text/css">
	.st0{fill:#654321;}
	.st1{fill:#FFFFFF;}
</style>
<path class="st0" d="M290,45.2c-0.5,0.5-0.8,1.1-1.4,1.5c-6.3,4.8-10,11.1-11.4,18.9c-0.6,3.5-1.2,7-2.7,10.3
	c-3.4,7-9.1,10.9-16.9,11.8c-7,0.8-13.2-1.2-18.6-5.7c-0.2-0.2-0.4-0.3-0.8-0.6c-0.8,2.5-1.7,4.8-2.4,7.2c-0.5,1.7-0.9,3.4-1.2,5.1
	c-0.1,0.6,0,1.3,0.3,1.8c1.9,3.2,3.6,6.4,4.8,9.9c0.1,0.4,0.2,0.8,0.4,1.3c-1.4,0.3-2.7,0.7-4,1c-2.1-6.2-5.4-11.6-9.8-16.6
	c-0.7,0.8-1.3,1.6-2.1,2.2c-6,4.8-12.6,6.1-19.8,2.9c-4.6-2-7.2-5.9-8.7-10.6c-0.9-2.8-1.8-5.7-3-8.4c-1.5-3.4-4.1-5.9-7.3-7.9
	c-0.2-0.2-0.5-0.3-0.7-0.5c-1.5-1.1-1.4-3,0.4-3.8c3.5-1.5,7.2-2.6,11-3.3c4.4-0.8,8.8-1.1,13.3-0.7c5.5,0.5,10.7,1.9,14.9,5.8
	c5.3,5,7,11.2,5,18.2c-0.5,1.8-0.4,3,1,4.2c0.2,0.2,0.3,0.3,0.6,0.6c0.1-0.4,0.3-0.7,0.4-1c1.2-3.4,2.4-6.9,3.6-10.3
	c0.2-0.6,0.2-1.1-0.1-1.7c-4.9-8.9-4.3-17.6,1.5-25.8c2.6-3.7,6.4-6.2,10.6-8c7.3-3.1,14.9-3.9,22.7-3.7c6.1,0.2,12.1,1.2,18,3
	c1.1,0.3,1.9,0.8,2.3,1.9L290,45.2L290,45.2z M237.7,72.9c0.5-0.8,0.9-1.4,1.2-2.1c3.4-5.6,7.7-10.5,13.1-14.4
	c4.5-3.2,9.5-5.4,14.9-6.7c0.7-0.2,1,0,1.1,0.7c0.1,0.7,0.3,1.3,0.4,2c0.3,1.4,0.3,1.5-1.1,1.8c-3.1,0.7-6.1,1.9-8.9,3.4
	c-7.5,4-12.9,10.1-16.9,17.5c-1.2,2.2-1.2,2.2,0.8,3.8c4.7,3.7,10,5.2,15.8,4.3c5.8-0.9,10.3-4,12.5-9.5c1.1-2.7,1.7-5.5,2.3-8.4
	c1.1-5.9,3.1-11.5,7-16.2c1-1.2,2-2.3,3.1-3.5c-0.4-0.1-0.7-0.2-1-0.3c-6.4-1.5-12.9-2-19.5-1.5c-5.2,0.4-10.3,1.4-15,3.7
	c-7.3,3.5-11.4,9.2-11.5,17.5C236,67.7,236.5,70.3,237.7,72.9L237.7,72.9z M190.8,67.4c-0.1,0.2-0.1,0.4-0.2,0.6
	c0.3,0.2,0.6,0.4,0.9,0.7c2.5,2.3,4.5,4.9,5.7,8c0.9,2.4,1.7,4.9,2.5,7.3c0.7,2.1,1.5,4.2,3.1,5.8c3.6,3.9,9.6,4.9,14.9,2.6
	c2.2-1,4.1-2.3,5.7-4.5c-2.7-2.1-5.2-4.2-7.9-6.1c-4.2-3-8.8-5.3-13.6-7.1c-0.8-0.3-1-0.7-0.6-1.4c0.3-0.7,0.6-1.5,0.8-2.2
	c0.2-0.7,0.6-0.8,1.2-0.6c7.3,2.9,14.1,6.7,20.1,11.8c0.6,0.5,1.2,1,1.9,1.6c0.8-3.3,0.6-6.3-0.7-9.2c-2-4.7-5.8-7-10.5-8.3
	c-4.6-1.3-9.3-1.3-14-0.7C197.1,66.1,194,66.8,190.8,67.4L190.8,67.4z"/>
<path class="st1" d="M237.7,72.9c-1.2-2.6-1.7-5.2-1.6-7.8c0.2-8.2,4.2-13.9,11.5-17.5c4.7-2.3,9.8-3.3,15-3.7
	c6.6-0.5,13,0,19.5,1.5c0.3,0.1,0.6,0.2,1,0.3c-1.1,1.2-2.1,2.3-3.1,3.5c-3.9,4.7-5.9,10.3-7,16.2c-0.5,2.8-1.2,5.7-2.3,8.4
	c-2.3,5.5-6.7,8.6-12.5,9.5c-5.9,0.9-11.2-0.6-15.8-4.3c-2-1.6-2-1.6-0.8-3.8c4.1-7.3,9.4-13.4,16.9-17.5c2.8-1.5,5.8-2.7,8.9-3.4
	c1.4-0.3,1.4-0.3,1.1-1.8c-0.1-0.7-0.3-1.3-0.4-2c-0.1-0.7-0.4-0.8-1.1-0.7c-5.4,1.3-10.3,3.5-14.9,6.7c-5.4,3.8-9.7,8.7-13.1,14.4
	C238.5,71.5,238.1,72.1,237.7,72.9L237.7,72.9z"/>
<path class="st1" d="M190.8,67.4c3.1-0.6,6.3-1.3,9.4-1.7c4.7-0.6,9.4-0.6,14,0.7c4.7,1.3,8.5,3.7,10.5,8.3c1.2,2.9,1.5,5.9,0.7,9.2
	c-0.7-0.6-1.3-1.1-1.9-1.6c-6-5.1-12.8-8.9-20.1-11.8c-0.7-0.3-1-0.1-1.2,0.6c-0.2,0.8-0.5,1.5-0.8,2.2c-0.4,0.8-0.2,1.1,0.6,1.4
	c4.8,1.8,9.4,4.1,13.6,7.1c2.7,1.9,5.2,4,7.9,6.1c-1.6,2.2-3.5,3.6-5.7,4.5c-5.3,2.3-11.2,1.3-14.9-2.6c-1.6-1.7-2.4-3.7-3.1-5.8
	c-0.8-2.5-1.6-4.9-2.5-7.3c-1.2-3.1-3.2-5.8-5.7-8c-0.3-0.2-0.6-0.4-0.9-0.7C190.7,67.8,190.8,67.6,190.8,67.4L190.8,67.4z"/>
<g>
	<path class="st0" d="M55.3,172.9v-50.1h16.2c6.2,0,10.2,0.2,12,0.8c2.9,0.8,5.3,2.4,7.2,4.9s2.9,5.8,2.9,9.8c0,3.1-0.6,5.7-1.7,7.8
		s-2.5,3.8-4.3,4.9s-3.5,2-5.2,2.4c-2.4,0.5-5.9,0.7-10.5,0.7h-6.6v18.9L55.3,172.9L55.3,172.9z"/>
	<path class="st0" d="M101.9,172.9v-50.1h9.6v50.1H101.9z"/>
	<path class="st0" d="M128.6,147.6l-8.7-1.6c1-3.5,2.7-6.1,5.1-7.8s5.9-2.5,10.7-2.5c4.3,0,7.5,0.5,9.6,1.5s3.6,2.3,4.4,3.9
		s1.3,4.4,1.3,8.6l-0.1,11.2c0,3.2,0.1,5.6,0.5,7.1s0.9,3.1,1.7,4.9h-9.5c-0.2-0.6-0.6-1.6-0.9-2.8c-0.2-0.6-0.3-0.9-0.3-1.1
		c-1.6,1.6-3.4,2.8-5.3,3.6s-3.9,1.2-6,1.2c-3.7,0-6.7-1-8.8-3s-3.2-4.6-3.2-7.7c0-2.1,0.5-3.9,1.5-5.5s2.3-2.8,4.1-3.7
		s4.3-1.6,7.6-2.2c4.5-0.8,7.6-1.6,9.3-2.4v-1c0-1.9-0.5-3.2-1.4-3.9s-2.6-1.2-5.2-1.2c-1.7,0-3,0.3-4,1S129.2,146,128.6,147.6
		L128.6,147.6z"/>
	<path class="st0" d="M193.4,172.9h-9.6v-18.5c0-3.9-0.2-6.4-0.6-7.6s-1.1-2.1-2-2.7s-2-1-3.3-1c-1.7,0-3.2,0.5-4.5,1.4
		c-1.3,0.9-2.2,2.1-2.7,3.6s-0.7,4.3-0.7,8.3v16.4h-9.6v-36.3h8.9v5.3c3.2-4.1,7.2-6.2,12-6.2c2.1,0,4.1,0.4,5.8,1.1s3.1,1.7,4,2.9
		s1.5,2.5,1.9,4s0.5,3.7,0.5,6.5L193.4,172.9L193.4,172.9z"/>
	<path class="st0" d="M219.8,136.6v7.7h-6.6v14.6c0,3,0.1,4.7,0.2,5.2s0.4,0.9,0.9,1.2s1,0.5,1.6,0.5c0.9,0,2.2-0.3,3.9-0.9l0.8,7.5
		c-2.2,1-4.8,1.4-7.6,1.4c-1.7,0-3.3-0.3-4.7-0.9s-2.4-1.3-3.1-2.3s-1.1-2.2-1.4-3.8c-0.2-1.1-0.3-3.4-0.3-6.8v-15.8h-4.4v-7.7h4.4
		v-7.2l9.6-5.6v12.8L219.8,136.6L219.8,136.6z"/>
	<path class="st0" d="M243.4,156.6l9.9-1c0.6,3.3,1.8,5.7,3.6,7.3c1.8,1.6,4.3,2.3,7.3,2.3c3.3,0,5.7-0.7,7.4-2.1s2.5-3,2.5-4.8
		c0-1.2-0.4-2.2-1-3s-1.9-1.6-3.6-2.2c-1.2-0.4-3.9-1.1-8.1-2.2c-5.4-1.4-9.2-3-11.4-5c-3.1-2.8-4.6-6.1-4.6-10.1
		c0-2.6,0.7-4.9,2.2-7.2s3.5-3.9,6.3-5.1c2.7-1.2,6-1.7,9.9-1.7c6.3,0,11,1.4,14.2,4.1s4.9,6.4,5,11l-10.1,0.4
		c-0.4-2.6-1.4-4.4-2.8-5.6s-3.6-1.7-6.4-1.7s-5.2,0.6-6.9,1.8c-1.1,0.8-1.6,1.8-1.6,3.1c0,1.2,0.5,2.2,1.5,3
		c1.3,1.1,4.4,2.2,9.3,3.4s8.6,2.4,10.9,3.6s4.2,2.9,5.5,5.1c1.3,2.1,2,4.8,2,8c0,2.9-0.8,5.6-2.4,8.1s-3.9,4.4-6.8,5.6
		s-6.5,1.8-10.9,1.8c-6.3,0-11.2-1.5-14.6-4.4S244.1,162.2,243.4,156.6L243.4,156.6z"/>
	<path class="st0" d="M299.4,172.9l-11.5-36.3h9.3l6.8,23.8l6.3-23.8h9.3l6,23.8l6.9-23.8h9.5l-11.7,36.3h-9.2l-6.3-23.4l-6.2,23.4
		H299.4L299.4,172.9z"/>
	<path class="st0" d="M354.3,147.6l-8.7-1.6c1-3.5,2.7-6.1,5.1-7.8s6-2.5,10.7-2.5c4.3,0,7.5,0.5,9.6,1.5s3.6,2.3,4.4,3.9
		s1.3,4.4,1.3,8.6l-0.1,11.2c0,3.2,0.1,5.6,0.5,7.1s0.9,3.1,1.7,4.9h-9.5c-0.2-0.6-0.6-1.6-0.9-2.8c-0.2-0.6-0.3-0.9-0.3-1.1
		c-1.6,1.6-3.4,2.8-5.3,3.6s-3.9,1.2-6,1.2c-3.7,0-6.7-1-8.8-3s-3.2-4.6-3.2-7.7c0-2.1,0.5-3.9,1.5-5.5s2.4-2.8,4.1-3.7
		s4.3-1.6,7.6-2.2c4.5-0.8,7.6-1.6,9.3-2.4v-1c0-1.9-0.5-3.2-1.4-3.9s-2.6-1.2-5.2-1.2c-1.7,0-3,0.3-4,1S354.9,146,354.3,147.6
		L354.3,147.6z"/>
	<path class="st0" d="M385.8,136.6h9v5.3c1.2-1.8,2.7-3.3,4.7-4.4s4.2-1.7,6.6-1.7c4.2,0,7.8,1.6,10.7,5c2.9,3.3,4.4,7.9,4.4,13.8
		s-1.5,10.8-4.5,14.1s-6.5,5-10.8,5c-2,0-3.8-0.4-5.5-1.2s-3.4-2.2-5.1-4.1v18.3h-9.6V136.6L385.8,136.6z"/>
</g>
</svg>
