<?xml version="1.0" encoding="UTF-8"?>
<svg width="700pt" height="700pt" version="1.1" viewBox="0 0 700 700" xmlns="http://www.w3.org/2000/svg" xmlns:xlink="http://www.w3.org/1999/xlink">
 <defs>
  <symbol id="u" overflow="visible">
   <path d="m1.0938-0.0625c-0.054688 0.03125-0.10938 0.054688-0.17188 0.0625s-0.125 0.015625-0.1875 0.015625c-0.19922 0-0.35938-0.050781-0.48438-0.15625-0.11719-0.11328-0.17188-0.26562-0.17188-0.45312 0-0.19531 0.054687-0.34766 0.17188-0.45312 0.125-0.11328 0.28516-0.17188 0.48438-0.17188 0.0625 0 0.125 0.011719 0.1875 0.03125 0.0625 0.011719 0.11719 0.03125 0.17188 0.0625v0.25c-0.054688-0.039062-0.10938-0.070312-0.17188-0.09375-0.054687-0.019531-0.10938-0.03125-0.17188-0.03125-0.10547 0-0.1875 0.039062-0.25 0.10938-0.0625 0.074219-0.09375 0.17188-0.09375 0.29688s0.03125 0.22656 0.09375 0.29688c0.0625 0.0625 0.14453 0.09375 0.25 0.09375 0.0625 0 0.11719-0.003906 0.17188-0.015625 0.0625-0.019531 0.11719-0.050781 0.17188-0.09375z"/>
  </symbol>
  <symbol id="b" overflow="visible">
   <path d="m0.79688-0.65625c-0.023437-0.007812-0.046875-0.015625-0.078125-0.015625-0.023438-0.007813-0.042969-0.015625-0.0625-0.015625-0.074219 0-0.13281 0.027344-0.17188 0.078125-0.042969 0.042969-0.0625 0.10938-0.0625 0.20312v0.40625h-0.28125v-0.89062h0.28125v0.14062c0.039063-0.0625 0.082031-0.10156 0.125-0.125 0.050781-0.03125 0.10938-0.046875 0.17188-0.046875h0.03125c0.007812 0 0.023438 0.007813 0.046875 0.015625z"/>
  </symbol>
  <symbol id="a" overflow="visible">
   <path d="m1.0312-0.45312v0.078125h-0.67188c0.007813 0.074219 0.035156 0.125 0.078125 0.15625 0.039062 0.03125 0.097656 0.046875 0.17188 0.046875 0.0625 0 0.125-0.003906 0.1875-0.015625 0.0625-0.019531 0.125-0.050781 0.1875-0.09375v0.23438c-0.0625 0.023438-0.13281 0.039062-0.20312 0.046875-0.0625 0.0078125-0.13281 0.015625-0.20312 0.015625-0.15625 0-0.28125-0.035156-0.375-0.10938-0.085937-0.082031-0.125-0.20312-0.125-0.35938 0-0.14453 0.039063-0.25781 0.125-0.34375 0.082031-0.082031 0.20312-0.125 0.35938-0.125 0.14453 0 0.25781 0.042969 0.34375 0.125 0.082031 0.085937 0.125 0.19922 0.125 0.34375zm-0.29688-0.09375c0-0.050781-0.015625-0.09375-0.046875-0.125-0.03125-0.039063-0.074219-0.0625-0.125-0.0625-0.054688 0-0.10156 0.015625-0.14062 0.046875-0.03125 0.03125-0.054687 0.078125-0.0625 0.14062z"/>
  </symbol>
  <symbol id="k" overflow="visible">
   <path d="m0.54688-0.40625c-0.0625 0-0.10938 0.011719-0.14062 0.03125-0.03125 0.023438-0.046875 0.054688-0.046875 0.09375 0 0.03125 0.007813 0.058594 0.03125 0.078125 0.03125 0.023437 0.066406 0.03125 0.10938 0.03125 0.050781 0 0.09375-0.015625 0.125-0.046875 0.039062-0.039062 0.0625-0.09375 0.0625-0.15625v-0.03125zm0.4375-0.10938v0.51562h-0.29688v-0.14062c-0.042969 0.0625-0.089844 0.10547-0.14062 0.125-0.042969 0.019531-0.09375 0.03125-0.15625 0.03125-0.09375 0-0.17188-0.023438-0.23438-0.078125-0.054688-0.050781-0.078125-0.11719-0.078125-0.20312 0-0.10156 0.03125-0.17969 0.09375-0.23438 0.070313-0.050781 0.1875-0.078125 0.34375-0.078125h0.17188v-0.015625c0-0.050781-0.023438-0.085938-0.0625-0.10938-0.03125-0.019531-0.085938-0.03125-0.15625-0.03125-0.0625 0-0.12109 0.011719-0.17188 0.03125-0.054687 0.011719-0.10156 0.027344-0.14062 0.046875v-0.21875c0.050781-0.007812 0.10938-0.019531 0.17188-0.03125 0.0625-0.007812 0.125-0.015625 0.1875-0.015625 0.16406 0 0.28516 0.03125 0.35938 0.09375 0.070312 0.0625 0.10938 0.16797 0.10938 0.3125z"/>
  </symbol>
  <symbol id="c" overflow="visible">
   <path d="m0.45312-1.1562v0.26562h0.29688v0.20312h-0.29688v0.375c0 0.042969 0.003906 0.074219 0.015625 0.09375 0.019531 0.011719 0.054688 0.015625 0.10938 0.015625h0.14062v0.20312h-0.25c-0.10547 0-0.18359-0.019531-0.23438-0.0625-0.042969-0.050781-0.0625-0.13281-0.0625-0.25v-0.375h-0.15625v-0.20312h0.15625v-0.26562z"/>
  </symbol>
  <symbol id="j" overflow="visible">
   <path d="m0.75-0.76562v-0.48438h0.28125v1.25h-0.28125v-0.125c-0.042969 0.054688-0.089844 0.089844-0.14062 0.10938-0.042969 0.019531-0.09375 0.03125-0.15625 0.03125-0.11719 0-0.21094-0.039062-0.28125-0.125-0.0625-0.082031-0.09375-0.19531-0.09375-0.34375 0-0.13281 0.03125-0.24219 0.09375-0.32812 0.070313-0.09375 0.16406-0.14062 0.28125-0.14062 0.0625 0 0.11328 0.015625 0.15625 0.046875 0.050781 0.023438 0.097656 0.058594 0.14062 0.10938zm-0.1875 0.57812c0.0625 0 0.10938-0.019531 0.14062-0.0625 0.03125-0.039062 0.046875-0.10938 0.046875-0.20312 0-0.082031-0.015625-0.14453-0.046875-0.1875-0.03125-0.039063-0.078125-0.0625-0.14062-0.0625s-0.10938 0.023437-0.14062 0.0625c-0.03125 0.042969-0.046875 0.10547-0.046875 0.1875 0 0.09375 0.015625 0.16406 0.046875 0.20312 0.03125 0.042969 0.078125 0.0625 0.14062 0.0625z"/>
  </symbol>
  <symbol id="i" overflow="visible">
   <path d="m0.60938-0.1875c0.0625 0 0.10938-0.019531 0.14062-0.0625 0.03125-0.039062 0.046875-0.10938 0.046875-0.20312 0-0.082031-0.015625-0.14453-0.046875-0.1875-0.03125-0.039063-0.078125-0.0625-0.14062-0.0625s-0.10938 0.023437-0.14062 0.0625c-0.03125 0.042969-0.046875 0.10547-0.046875 0.1875 0 0.085937 0.015625 0.15234 0.046875 0.20312 0.03125 0.042969 0.078125 0.0625 0.14062 0.0625zm-0.1875-0.57812c0.039063-0.050781 0.082031-0.085937 0.125-0.10938 0.050781-0.03125 0.10938-0.046875 0.17188-0.046875 0.11328 0 0.20312 0.046875 0.26562 0.14062 0.070313 0.085938 0.10938 0.19531 0.10938 0.32812 0 0.14844-0.039062 0.26172-0.10938 0.34375-0.0625 0.085938-0.15234 0.125-0.26562 0.125-0.0625 0-0.12109-0.011719-0.17188-0.03125-0.042969-0.019531-0.085937-0.054688-0.125-0.10938v0.125h-0.28125v-1.25h0.28125z"/>
  </symbol>
  <symbol id="h" overflow="visible">
   <path d="m0.015625-0.89062h0.29688l0.23438 0.60938 0.20312-0.60938h0.29688l-0.39062 0.96875c-0.03125 0.10156-0.074219 0.17578-0.125 0.21875-0.054688 0.039063-0.12109 0.0625-0.20312 0.0625h-0.15625v-0.1875h0.078125c0.050781 0 0.085938-0.011719 0.10938-0.03125 0.019531-0.011719 0.035156-0.039063 0.046875-0.078125l0.015625-0.03125z"/>
  </symbol>
  <symbol id="e" overflow="visible">
   <path d="m0.875-0.21875h-0.48438l-0.078125 0.21875h-0.29688l0.4375-1.2031h0.35938l0.45312 1.2031h-0.3125zm-0.40625-0.21875h0.32812l-0.15625-0.48438z"/>
  </symbol>
  <symbol id="g" overflow="visible">
   <path d="m0.96875-0.75c0.039062-0.050781 0.082031-0.09375 0.125-0.125 0.050781-0.03125 0.10938-0.046875 0.17188-0.046875 0.10156 0 0.17969 0.03125 0.23438 0.09375 0.050781 0.0625 0.078125 0.15625 0.078125 0.28125v0.54688h-0.28125v-0.46875-0.015625-0.03125c0-0.0625-0.011719-0.10938-0.03125-0.14062-0.023437-0.03125-0.054687-0.046875-0.09375-0.046875-0.054687 0-0.09375 0.027344-0.125 0.078125-0.03125 0.042969-0.046875 0.10547-0.046875 0.1875v0.4375h-0.28125v-0.46875c0-0.09375-0.011719-0.15625-0.03125-0.1875-0.023438-0.03125-0.054688-0.046875-0.09375-0.046875-0.054688 0-0.09375 0.027344-0.125 0.078125-0.03125 0.042969-0.046875 0.10547-0.046875 0.1875v0.4375h-0.28125v-0.89062h0.28125v0.125c0.039063-0.050781 0.082031-0.085937 0.125-0.10938 0.039063-0.03125 0.09375-0.046875 0.15625-0.046875s0.11328 0.015625 0.15625 0.046875c0.050781 0.03125 0.085937 0.074219 0.10938 0.125z"/>
  </symbol>
  <symbol id="f" overflow="visible">
   <path d="m0.14062-0.89062h0.28125v0.89062h-0.28125zm0-0.35938h0.28125v0.23438h-0.28125z"/>
  </symbol>
  <symbol id="t" overflow="visible">
   <path d="m0.14062-1.25h0.28125v1.25h-0.28125z"/>
  </symbol>
  <symbol id="s" overflow="visible">
   <path d="m0.73438-1.25v0.1875h-0.17188c-0.03125 0-0.058594 0.011719-0.078125 0.03125-0.023437 0.011719-0.03125 0.039062-0.03125 0.078125v0.0625h0.25v0.20312h-0.25v0.6875h-0.28125v-0.6875h-0.14062v-0.20312h0.14062v-0.0625c0-0.10156 0.023437-0.17578 0.078125-0.21875 0.0625-0.050781 0.14844-0.078125 0.26562-0.078125z"/>
  </symbol>
  <symbol id="d" overflow="visible">
   <path d="m0.5625-0.71875c-0.0625 0-0.10938 0.027344-0.14062 0.078125-0.03125 0.042969-0.046875 0.10547-0.046875 0.1875 0 0.09375 0.015625 0.16406 0.046875 0.20312 0.03125 0.042969 0.078125 0.0625 0.14062 0.0625s0.10938-0.019531 0.14062-0.0625c0.039063-0.039062 0.0625-0.10938 0.0625-0.20312 0-0.082031-0.023437-0.14453-0.0625-0.1875-0.03125-0.050781-0.078125-0.078125-0.14062-0.078125zm0-0.20312c0.15625 0 0.27344 0.042969 0.35938 0.125 0.09375 0.085937 0.14062 0.19922 0.14062 0.34375 0 0.14844-0.046875 0.26172-0.14062 0.34375-0.085937 0.085938-0.20312 0.125-0.35938 0.125s-0.27734-0.039062-0.35938-0.125c-0.085937-0.082031-0.125-0.19531-0.125-0.34375 0-0.14453 0.039063-0.25781 0.125-0.34375 0.082031-0.082031 0.20312-0.125 0.35938-0.125z"/>
  </symbol>
  <symbol id="r" overflow="visible">
   <path d="m1.0469-0.54688v0.54688h-0.29688v-0.42188c0-0.070313-0.007812-0.125-0.015625-0.15625v-0.0625c-0.011719-0.019531-0.027344-0.035156-0.046875-0.046875-0.023438-0.007812-0.046875-0.015625-0.078125-0.015625-0.054687 0-0.10156 0.027344-0.14062 0.078125-0.03125 0.042969-0.046875 0.10547-0.046875 0.1875v0.4375h-0.28125v-1.25h0.28125v0.48438c0.039063-0.050781 0.085937-0.085937 0.14062-0.10938 0.050781-0.03125 0.10156-0.046875 0.15625-0.046875 0.10156 0 0.17969 0.03125 0.23438 0.09375 0.0625 0.0625 0.09375 0.15625 0.09375 0.28125z"/>
  </symbol>
  <symbol id="q" overflow="visible">
   <path d="m0.15625-1.2031h0.34375l0.4375 0.82812v-0.82812h0.28125v1.2031h-0.34375l-0.4375-0.82812v0.82812h-0.28125z"/>
  </symbol>
  <symbol id="p" overflow="visible">
   <path d="m0.125-0.34375v-0.54688h0.29688v0.078125 0.1875 0.14062 0.15625c0 0.03125 0.003906 0.058594 0.015625 0.078125 0.007812 0.023438 0.023438 0.039062 0.046875 0.046875 0.019531 0.011719 0.039063 0.015625 0.0625 0.015625 0.0625 0 0.10938-0.019531 0.14062-0.0625 0.039062-0.050781 0.0625-0.11719 0.0625-0.20312v-0.4375h0.28125v0.89062h-0.28125v-0.125c-0.054688 0.054688-0.10547 0.089844-0.15625 0.10938-0.042969 0.019531-0.089844 0.03125-0.14062 0.03125-0.10547 0-0.1875-0.03125-0.25-0.09375-0.054687-0.0625-0.078125-0.14844-0.078125-0.26562z"/>
  </symbol>
  <symbol id="o" overflow="visible">
   <path d="m1.0469-0.54688v0.54688h-0.29688v-0.42188c0-0.070313-0.007812-0.125-0.015625-0.15625v-0.0625c-0.011719-0.019531-0.027344-0.035156-0.046875-0.046875-0.023438-0.007812-0.046875-0.015625-0.078125-0.015625-0.054687 0-0.10156 0.027344-0.14062 0.078125-0.03125 0.042969-0.046875 0.10547-0.046875 0.1875v0.4375h-0.28125v-0.89062h0.28125v0.125c0.039063-0.050781 0.085937-0.085937 0.14062-0.10938 0.050781-0.03125 0.10156-0.046875 0.15625-0.046875 0.10156 0 0.17969 0.03125 0.23438 0.09375 0.0625 0.0625 0.09375 0.15625 0.09375 0.28125z"/>
  </symbol>
  <symbol id="n" overflow="visible">
   <path d="m0.15625-1.2031h0.5c0.15625 0 0.27344 0.039063 0.35938 0.10938 0.082031 0.0625 0.125 0.15625 0.125 0.28125s-0.042969 0.22656-0.125 0.29688c-0.085937 0.0625-0.20312 0.09375-0.35938 0.09375h-0.20312v0.42188h-0.29688zm0.29688 0.23438v0.32812h0.17188c0.0625 0 0.10938-0.007813 0.14062-0.03125 0.03125-0.03125 0.046875-0.078125 0.046875-0.14062 0-0.050781-0.015625-0.085938-0.046875-0.10938-0.03125-0.03125-0.078125-0.046875-0.14062-0.046875z"/>
  </symbol>
  <symbol id="m" overflow="visible">
   <path d="m0.14062-0.89062h0.28125v0.875c0 0.125-0.03125 0.21875-0.09375 0.28125-0.054687 0.0625-0.13281 0.09375-0.23438 0.09375h-0.14062v-0.1875h0.046875c0.050781 0 0.085938-0.015625 0.10938-0.046875 0.019531-0.023438 0.03125-0.070312 0.03125-0.14062zm0-0.35938h0.28125v0.23438h-0.28125z"/>
  </symbol>
  <symbol id="l" overflow="visible">
   <path d="m0.85938-0.875v0.23438c-0.042969-0.019531-0.085937-0.035156-0.125-0.046875-0.03125-0.019531-0.070313-0.03125-0.10938-0.03125-0.085938 0-0.14844 0.027344-0.1875 0.078125-0.042969 0.042969-0.0625 0.10547-0.0625 0.1875 0 0.085937 0.019531 0.15234 0.0625 0.20312 0.039062 0.042969 0.10156 0.0625 0.1875 0.0625 0.039062 0 0.082031-0.003906 0.125-0.015625 0.039062-0.007813 0.078125-0.03125 0.10938-0.0625v0.23438c-0.042969 0.023438-0.089844 0.03125-0.14062 0.03125-0.042969 0.0078125-0.085938 0.015625-0.125 0.015625-0.16797 0-0.29688-0.035156-0.39062-0.10938-0.085937-0.082031-0.125-0.20312-0.125-0.35938 0-0.14453 0.039063-0.25781 0.125-0.34375 0.09375-0.082031 0.22266-0.125 0.39062-0.125 0.039062 0 0.082031 0.007813 0.125 0.015625 0.050781 0.011719 0.097656 0.023438 0.14062 0.03125z"/>
  </symbol>
 </defs>
 <g>
  <path d="m466.95 560h-233.91c-28.543 0-51.504-23.293-51.504-51.504v-320.84c0-28.215 22.965-51.504 51.504-51.504h233.91c28.215 0 51.176 23.293 51.176 51.504v320.84c0 28.215-22.965 51.504-51.176 51.504zm-233.91-410.73c-20.996 0-38.383 17.387-38.383 38.383v320.84c0 20.996 17.387 38.383 38.383 38.383h233.91c20.996 0 38.055-17.387 38.055-38.383v-320.84c0-20.996-17.059-38.383-38.055-38.383z" fill-rule="evenodd"/>
  <path d="m511.57 209.63h-323.47c-3.6094 0-6.5625-2.625-6.5625-6.5625 0-3.6094 2.9531-6.5625 6.5625-6.5625h323.47c3.6094 0 6.5625 2.9531 6.5625 6.5625 0 3.9375-2.9531 6.5625-6.5625 6.5625z" fill-rule="evenodd"/>
  <path d="m511.57 499.64h-323.47c-3.6094 0-6.5625-2.9531-6.5625-6.5625s2.9531-6.5625 6.5625-6.5625h323.47c3.6094 0 6.5625 2.9531 6.5625 6.5625s-2.9531 6.5625-6.5625 6.5625z" fill-rule="evenodd"/>
  <path d="m423.65 149.27h-147.3c-3.6094 0-6.5625-2.625-6.5625-6.5625v-75.781c0-3.6094 2.9531-6.5625 6.5625-6.5625h147.3c3.6094 0 6.5625 2.9531 6.5625 6.5625v75.781c0 3.9375-2.9531 6.5625-6.5625 6.5625zm-140.74-13.121h134.18v-62.66h-134.18z" fill-rule="evenodd"/>
  <path d="m452.19 73.484h-204.71c-8.2031 0-14.762-6.5625-14.762-15.09v-43.305c0-8.2031 6.5625-15.09 14.762-15.09h204.71c8.5312 0 15.09 6.8906 15.09 15.09v43.305c0 8.5312-6.5625 15.09-15.09 15.09zm-204.71-60.363c-0.98438 0-1.6406 0.98438-1.6406 1.9688v43.305c0 0.98438 0.65625 1.9688 1.6406 1.9688h204.71c0.98438 0 1.9688-0.98438 1.9688-1.9688v-43.305c0-0.98438-0.98438-1.9688-1.9688-1.9688z" fill-rule="evenodd"/>
  <path d="m390.84 458.3h-81.688c-2.2969 0-4.5938-1.3125-5.9062-3.6094-1.9688-3.9375-3.9375-8.5312-5.9062-12.465-6.2344-14.434-12.465-28.215-25.59-34.445-18.699-9.1875-28.215-49.211-20.34-87.266 5.25-23.621 24.605-79.391 98.09-82.672h0.65625c73.812 3.2812 93.168 59.051 98.09 82.672 7.875 38.055-1.3125 78.078-20.34 87.266-12.793 6.2344-19.027 20.012-25.59 34.445-1.6406 3.9375-3.6094 8.5312-5.9062 12.465-0.98437 2.2969-3.2812 3.6094-5.5781 3.6094zm-77.422-13.121h73.156c1.3125-2.625 2.625-5.5781 3.9375-8.5312 6.8906-15.09 14.434-32.148 31.82-40.68 10.168-4.9219 20.668-36.414 13.121-72.828-5.25-25.59-23.621-69.223-85.625-72.172-61.676 2.9531-80.047 46.586-85.297 72.172-7.5469 36.414 2.9531 67.91 13.121 72.828 17.059 8.5312 24.934 25.59 31.82 40.68 1.3125 2.9531 2.625 5.9062 3.9375 8.5312z" fill-rule="evenodd"/>
  <path d="m312.77 354.96c-14.434 0-25.918-11.48-25.918-25.918 0-14.105 11.48-25.918 25.918-25.918 14.434 0 25.918 11.809 25.918 25.918 0 14.434-11.48 25.918-25.918 25.918zm0-38.711c-7.2188 0-12.793 5.9062-12.793 12.793 0 7.2188 5.5781 12.793 12.793 12.793 7.2188 0 12.793-5.5781 12.793-12.793 0-6.8906-5.5781-12.793-12.793-12.793z" fill-rule="evenodd"/>
  <path d="m387.23 354.96c-14.434 0-25.918-11.48-25.918-25.918 0-14.105 11.48-25.918 25.918-25.918 14.105 0 25.918 11.809 25.918 25.918 0 14.434-11.809 25.918-25.918 25.918zm0-38.711c-7.2188 0-12.793 5.9062-12.793 12.793 0 7.2188 5.5781 12.793 12.793 12.793 6.8906 0 12.793-5.5781 12.793-12.793 0-6.8906-5.9062-12.793-12.793-12.793z" fill-rule="evenodd"/>
  <path d="m395.77 403.84h-91.855c-3.6094 0-6.5625-2.9531-6.5625-6.5625s2.9531-6.5625 6.5625-6.5625h91.855c3.6094 0 6.5625 2.9531 6.5625 6.5625s-2.9531 6.5625-6.5625 6.5625z" fill-rule="evenodd"/>
  <path d="m322.28 415.65c-3.6094 0-6.5625-2.9531-6.5625-6.5625v-23.621c0-3.6094 2.9531-6.5625 6.5625-6.5625s6.5625 2.9531 6.5625 6.5625v23.621c0 3.6094-2.9531 6.5625-6.5625 6.5625z" fill-rule="evenodd"/>
  <path d="m349.84 415.65c-3.6094 0-6.5625-2.9531-6.5625-6.5625v-23.621c0-3.6094 2.9531-6.5625 6.5625-6.5625 3.6094 0 6.5625 2.9531 6.5625 6.5625v23.621c0 3.6094-2.9531 6.5625-6.5625 6.5625z" fill-rule="evenodd"/>
  <path d="m377.72 415.65c-3.6094 0-6.5625-2.9531-6.5625-6.5625v-23.621c0-3.6094 2.9531-6.5625 6.5625-6.5625s6.5625 2.9531 6.5625 6.5625v23.621c0 3.6094-2.9531 6.5625-6.5625 6.5625z" fill-rule="evenodd"/>
  <path d="m289.14 73.484c-3.6094 0-6.5625-2.9531-6.5625-6.5625v-60.363c0-3.6094 2.9531-6.5625 6.5625-6.5625s6.5625 2.9531 6.5625 6.5625v60.363c0 3.6094-2.9531 6.5625-6.5625 6.5625z" fill-rule="evenodd"/>
  <path d="m349.84 73.484c-3.6094 0-6.5625-2.9531-6.5625-6.5625v-60.363c0-3.6094 2.9531-6.5625 6.5625-6.5625 3.6094 0 6.5625 2.9531 6.5625 6.5625v60.363c0 3.6094-2.9531 6.5625-6.5625 6.5625z" fill-rule="evenodd"/>
  <path d="m410.53 73.484c-3.6094 0-6.5625-2.9531-6.5625-6.5625v-60.363c0-3.6094 2.9531-6.5625 6.5625-6.5625s6.5625 2.9531 6.5625 6.5625v60.363c0 3.6094-2.9531 6.5625-6.5625 6.5625z" fill-rule="evenodd"/>
  <use x="70" y="564.921875" xlink:href="#u"/>
  <use x="71.203125" y="564.921875" xlink:href="#b"/>
  <use x="72.011719" y="564.921875" xlink:href="#a"/>
  <use x="73.125" y="564.921875" xlink:href="#k"/>
  <use x="74.230469" y="564.921875" xlink:href="#c"/>
  <use x="75.015625" y="564.921875" xlink:href="#a"/>
  <use x="76.128906" y="564.921875" xlink:href="#j"/>
  <use x="77.875" y="564.921875" xlink:href="#i"/>
  <use x="79.046875" y="564.921875" xlink:href="#h"/>
  <use x="80.6875" y="564.921875" xlink:href="#e"/>
  <use x="81.957031" y="564.921875" xlink:href="#g"/>
  <use x="83.667969" y="564.921875" xlink:href="#f"/>
  <use x="84.230469" y="564.921875" xlink:href="#b"/>
  <use x="85.609375" y="564.921875" xlink:href="#e"/>
  <use x="86.878906" y="564.921875" xlink:href="#t"/>
  <use x="87.441406" y="564.921875" xlink:href="#f"/>
  <use x="70" y="566.5625" xlink:href="#s"/>
  <use x="70.714844" y="566.5625" xlink:href="#b"/>
  <use x="71.523437" y="566.5625" xlink:href="#d"/>
  <use x="72.648438" y="566.5625" xlink:href="#g"/>
  <use x="74.929687" y="566.5625" xlink:href="#c"/>
  <use x="75.714844" y="566.5625" xlink:href="#r"/>
  <use x="76.882812" y="566.5625" xlink:href="#a"/>
  <use x="78.566406" y="566.5625" xlink:href="#q"/>
  <use x="79.9375" y="566.5625" xlink:href="#d"/>
  <use x="81.066406" y="566.5625" xlink:href="#p"/>
  <use x="82.234375" y="566.5625" xlink:href="#o"/>
  <use x="83.972656" y="566.5625" xlink:href="#n"/>
  <use x="85.171875" y="566.5625" xlink:href="#b"/>
  <use x="85.984375" y="566.5625" xlink:href="#d"/>
  <use x="87.109375" y="566.5625" xlink:href="#m"/>
  <use x="87.671875" y="566.5625" xlink:href="#a"/>
  <use x="88.785156" y="566.5625" xlink:href="#l"/>
  <use x="89.757812" y="566.5625" xlink:href="#c"/>
 </g>
</svg>
